<?xml version="1.0" encoding="UTF-8" standalone="no"?>
<svg width="957px" height="265px" viewBox="0 0 957 265" version="1.1" xmlns="http://www.w3.org/2000/svg" xmlns:xlink="http://www.w3.org/1999/xlink" xmlns:sketch="http://www.bohemiancoding.com/sketch/ns">
    <title>Untitled</title>
    <description>Created with Sketch (http://www.bohemiancoding.com/sketch)</description>
    <defs>
        <path id="path-1" d="M0,0.0130493245 L960.275574,0.0130493245 L960.275574,268.013049 L0,268.013049 L0,0.0130493245 Z"></path>
    </defs>
    <g id="Page-1" stroke="none" stroke-width="1" fill="none" fill-rule="evenodd" sketch:type="MSPage">
        <g id="Imported-Layers" sketch:type="MSLayerGroup">
            <path d="M0,268.013049 L960.275574,268.013049 L960.275574,0.0130493245 L0,0.0130493245 L0,268.013049 Z" id="Fill-1" fill="#221F20" sketch:type="MSShapeGroup"></path>
            <path d="M960,40 L379,148.339507 L960,234.621641 L960,40 Z" id="Fill-2" fill="#312F30" sketch:type="MSShapeGroup"></path>
            <path d="M960,40 L668,187.221475 L960,235.530074 L960,40 Z" id="Fill-3" fill="#3D3D3E" sketch:type="MSShapeGroup"></path>
            <path d="M960,40 L655,189.199954 L960,235.530074 L960,40 Z" id="Fill-4" fill="#3D3D3E" sketch:type="MSShapeGroup"></path>
            <g id="Group-20">
                <path d="M67.1369687,118.014879 C63.1135866,118.014879 59.4940459,118.821929 56.2783466,120.432015 C53.060643,122.045112 50.3028977,124.20327 48.0051106,126.906488 C45.7053194,129.612717 43.9246096,132.720464 42.6619791,136.229728 C41.3963424,139.742004 40.7660292,143.394811 40.7660292,147.194172 C40.7660292,151.223402 41.3402255,155.078975 42.48962,158.760892 C43.6370104,162.445821 45.3335449,165.727224 47.5742129,168.602091 C49.814881,171.480972 52.5726263,173.781669 55.8474489,175.508195 C59.1222714,177.235725 62.9412276,178.097984 67.3093278,178.097984 C71.7906639,178.097984 75.6957996,177.264835 79.0297453,175.594521 C82.3606848,173.928223 85.1755491,171.682735 87.4753403,168.86107 C89.7721253,166.042416 91.4967182,162.791126 92.6461127,159.106198 C93.7935031,155.424281 94.3697035,151.509483 94.3697035,147.366825 C94.3697035,143.337595 93.7363841,139.540241 92.4737537,135.970749 C91.2081169,132.404268 89.4284092,129.296522 87.1306221,126.647509 C84.8308309,124.001507 81.9869061,121.899562 78.5988476,120.345689 C75.208785,118.791815 71.3868225,118.014879 67.1369687,118.014879 L67.1369687,118.014879 Z M93.6802672,177.407373 L93.3355491,177.407373 C90.0016033,181.782912 85.895048,185.120528 81.0118747,187.421224 C76.1266973,189.722924 70.9288685,190.874276 65.4133779,190.874276 C59.4369269,190.874276 54.0647349,189.692811 49.2978038,187.334898 C44.5278664,184.976985 40.4483674,181.839125 37.060309,177.925331 C33.6702463,174.014549 31.083858,169.495468 29.3041503,164.372102 C27.5214363,159.252752 26.6325846,153.869403 26.6325846,148.229084 C26.6325846,142.475336 27.5214363,136.979562 29.3041503,131.74076 C31.083858,126.50497 33.6401837,121.929676 36.9741294,118.014879 C40.306071,114.103093 44.3855699,110.995346 49.2116242,108.691638 C54.0376785,106.390942 59.4940459,105.238586 65.585737,105.238586 C71.1012276,105.238586 76.272,106.447154 81.0980543,108.864291 C85.9241086,111.281427 90.0016033,114.678267 93.3355491,119.050794 L93.6802672,119.050794 L93.6802672,46.1913966 L107.468994,46.1913966 L107.468994,188.629792 L93.6802672,188.629792 L93.6802672,177.407373 Z" id="Fill-5" fill="#666666" sketch:type="MSShapeGroup"></path>
                <path d="M170.896534,139.25145 C170.435574,136.375579 169.487599,133.64024 168.05261,131.050451 C166.614614,128.460662 164.863967,126.189076 162.795658,124.230673 C160.727349,122.274279 158.341378,120.750519 155.642756,119.655379 C152.941127,118.563251 150.097203,118.01518 147.110981,118.01518 C144.121754,118.01518 141.250772,118.563251 138.493027,119.655379 C135.735282,120.750519 133.236075,122.274279 130.995407,124.230673 C128.754739,126.189076 126.885846,128.460662 125.393737,131.050451 C123.898622,133.64024 122.921587,136.375579 122.463633,139.25145 L170.896534,139.25145 Z M121.774196,150.991827 C121.774196,154.790184 122.43357,158.329562 123.756326,161.609962 C125.076075,164.890361 126.885846,167.739129 129.185637,170.156265 C131.482422,172.573402 134.27023,174.502694 137.545052,175.940127 C140.819875,177.380572 144.409353,178.098285 148.317495,178.098285 C154.177704,178.098285 159.089937,176.517309 163.054196,173.350338 C167.018455,170.186379 170.320334,166.185255 172.964843,161.350983 L184.685261,168.084434 C180.777119,175.335843 175.636409,180.947053 169.259123,184.918063 C162.881837,188.889073 155.556576,190.874577 147.28334,190.874577 C141.191649,190.874577 135.705219,189.778434 130.823048,187.594178 C125.937871,185.408918 121.774196,182.444714 118.327015,178.702569 C114.879833,174.963436 112.235324,170.560794 110.398497,165.494645 C108.558664,160.430503 107.640752,154.962836 107.640752,149.091644 C107.640752,143.109031 108.502547,137.438597 110.226138,132.086367 C111.949729,126.734136 114.475992,122.072516 117.809937,118.101506 C121.140877,114.130496 125.248434,110.995647 130.133612,108.691939 C135.015783,106.391243 140.617453,105.238887 146.938622,105.238887 C153.488267,105.238887 159.232234,106.477569 164.17453,108.950918 C169.11382,111.427278 173.223382,114.794004 176.498205,119.051095 C179.773027,123.311198 182.155992,128.201683 183.651106,133.726566 C185.143215,139.25145 185.719415,145.008209 185.374697,150.991827 L121.774196,150.991827 Z" id="Fill-7" fill="#666666" sketch:type="MSShapeGroup"></path>
                <mask id="mask-2" sketch:name="Clip 10" fill="white">
                    <use xlink:href="#path-1"></use>
                </mask>
                <g id="Clip-10"></g>
                <path d="M199.68,188.629993 L185.891273,188.629993 L185.891273,46.1915973 L199.68,46.1915973 L199.68,188.629993 Z" id="Fill-9" fill="#666666" sketch:type="MSShapeGroup" mask="url(#mask-2)"></path>
                <path d="M245.181194,126.302605 C244.260276,124.117345 242.824284,122.188053 240.872217,120.518743 C238.917144,118.851441 236.676476,118.01528 234.150213,118.01528 C231.737186,118.01528 229.466455,118.851441 227.342029,120.518743 C225.214597,122.188053 224.153386,124.34621 224.153386,126.993215 C224.153386,128.835178 224.69752,130.419165 225.790797,131.741162 C226.881069,133.065166 228.290004,134.273735 230.013595,135.366867 C231.737186,136.462006 233.719315,137.438698 235.959983,138.301961 C238.200651,139.165224 240.527499,140.114813 242.940526,141.150729 C245.353553,142.186644 247.680401,143.337996 249.921069,144.603781 C252.161737,145.871573 254.143866,147.396336 255.867457,149.179075 C257.591048,150.963821 258.996977,153.092868 260.090255,155.567221 C261.180526,158.043581 261.727666,161.005778 261.727666,164.45883 C261.727666,168.257187 261.008167,171.796565 259.573177,175.076965 C258.135182,178.35636 256.153052,181.14992 253.626789,183.450616 C251.09752,185.754324 248.197478,187.567176 244.922656,188.889173 C241.647833,190.21117 238.114472,190.874678 234.322572,190.874678 C227.428209,190.874678 221.48182,189.060822 216.483407,185.436121 C211.484994,181.810416 207.892509,176.776388 205.710965,170.328014 L217.948459,165.14944 C219.67205,168.946794 221.711299,172.055544 224.067207,174.472681 C226.421111,176.889817 229.898355,178.098385 234.494931,178.098385 C238.170589,178.098385 241.274054,176.949041 243.802322,174.645333 C246.328585,172.343633 247.594221,169.352327 247.594221,165.667398 C247.594221,162.675088 246.703365,160.257951 244.922656,158.415989 C243.139942,156.57503 240.872217,154.962937 238.114472,153.581716 C235.356727,152.200495 232.426622,150.905601 229.324159,149.697032 C226.221695,148.488464 223.291591,146.993815 220.533846,145.208065 C217.7761,143.424323 215.506372,141.210956 213.725662,138.56094 C211.942948,135.913934 211.054096,132.460882 211.054096,128.201784 C211.054096,124.748732 211.684409,121.613882 212.950046,118.792217 C214.213678,115.972559 215.96633,113.555423 218.206998,111.540808 C220.447666,109.5282 223.003992,107.974327 225.876977,106.879187 C228.747958,105.787059 231.850422,105.238988 235.184367,105.238988 C239.895182,105.238988 244.203157,106.679432 248.111299,109.555303 C252.016434,112.434184 254.88942,116.002673 256.729253,120.259764 L245.181194,126.302605 Z" id="Fill-11" fill="#BBBCBC" sketch:type="MSShapeGroup" mask="url(#mask-2)"></path>
                <path d="M282.753169,188.629993 L268.964443,188.629993 L268.964443,120.259563 L260.518848,120.259563 L260.518848,107.483271 L268.964443,107.483271 L268.964443,78.3049811 L282.753169,78.3049811 L282.753169,107.483271 L297.231332,107.483271 L297.231332,120.259563 L282.753169,120.259563 L282.753169,188.629993 Z" id="Fill-12" fill="#BBBCBC" sketch:type="MSShapeGroup" mask="url(#mask-2)"></path>
                <path d="M314.120718,116.288654 L314.465436,116.288654 C316.878463,113.067478 319.347608,110.418465 321.876877,108.346634 C324.40314,106.274803 327.909445,105.238887 332.390781,105.238887 C334.687566,105.238887 336.842054,105.584192 338.854246,106.274803 C340.863432,106.965413 342.845562,107.8879 344.800635,109.037245 L338.25099,121.640884 C336.872117,120.721409 335.60648,119.887256 334.45909,119.137422 C333.308693,118.389595 331.81458,118.01518 329.977754,118.01518 C326.185854,118.01518 323.225687,119.080205 321.101261,121.209253 C318.973829,123.340308 317.395541,125.957199 316.361386,129.064946 C315.327232,132.172693 314.693912,135.453092 314.465436,138.906144 C314.233954,142.359197 314.120718,145.409727 314.120718,148.056732 L314.120718,188.630094 L300.331992,188.630094 L300.331992,107.483371 L314.120718,107.483371 L314.120718,116.288654 Z" id="Fill-13" fill="#BBBCBC" sketch:type="MSShapeGroup" mask="url(#mask-2)"></path>
                <path d="M376.857921,118.014879 C372.605061,118.014879 368.697921,118.821929 365.137503,120.432015 C361.575081,122.045112 358.528735,124.20327 356.002472,126.906488 C353.474205,129.612717 351.521136,132.776676 350.142263,136.402381 C348.76339,140.028085 348.073954,143.912769 348.073954,148.056431 C348.073954,152.200094 348.76339,156.084777 350.142263,159.711486 C351.521136,163.336186 353.474205,166.531263 356.002472,169.292701 C358.528735,172.055143 361.575081,174.2133 365.137503,175.767174 C368.697921,177.322051 372.605061,178.097984 376.857921,178.097984 C381.107775,178.097984 385.015916,177.322051 388.578338,175.767174 C392.138756,174.2133 395.185102,172.055143 397.71337,169.292701 C400.239633,166.531263 402.194706,163.336186 403.573578,159.711486 C404.952451,156.084777 405.641887,152.200094 405.641887,148.056431 C405.641887,143.912769 404.952451,140.028085 403.573578,136.402381 C402.194706,132.776676 400.239633,129.612717 397.71337,126.906488 C395.185102,124.20327 392.138756,122.045112 388.578338,120.432015 C385.015916,118.821929 381.107775,118.014879 376.857921,118.014879 M376.857921,190.874276 C370.997712,190.874276 365.482221,189.779137 360.311449,187.593877 C355.140676,185.408617 350.629278,182.387196 346.781261,178.530619 C342.930238,174.675046 339.886898,170.155964 337.64623,164.976386 C335.405562,159.797812 334.285228,154.214709 334.285228,148.229084 C334.285228,142.245467 335.375499,136.66136 337.56005,131.481782 C339.741595,126.302203 342.757879,121.757023 346.608902,117.842226 C350.456919,113.93044 354.968317,110.849796 360.13909,108.605312 C365.309862,106.360828 370.882472,105.238586 376.857921,105.238586 C382.831365,105.238586 388.405979,106.360828 393.576752,108.605312 C398.747524,110.849796 403.255916,113.93044 407.106939,117.842226 C410.954956,121.757023 413.972242,126.302203 416.155791,131.481782 C418.337336,136.66136 419.430614,142.245467 419.430614,148.229084 C419.430614,154.214709 418.31028,159.797812 416.069612,164.976386 C413.828944,170.155964 410.782597,174.675046 406.93458,178.530619 C403.083557,182.387196 398.575165,185.408617 393.404392,187.593877 C388.23362,189.779137 382.718129,190.874276 376.857921,190.874276" id="Fill-14" fill="#BBBCBC" sketch:type="MSShapeGroup" mask="url(#mask-2)"></path>
                <path d="M436.666021,117.324369 L437.010739,117.324369 C439.88172,113.412583 443.185603,110.418265 446.921386,108.346433 C450.654163,106.274602 455.049319,105.238687 460.106856,105.238687 C465.735582,105.238687 470.333161,106.188276 473.895582,108.087454 C477.456,109.986633 480.272868,112.54932 482.341177,115.770495 C484.409486,118.994682 485.815415,122.735823 486.563975,126.992914 C487.309528,131.252013 487.684309,135.741984 487.684309,140.459817 L487.684309,188.629893 L473.895582,188.629893 L473.895582,142.876954 C473.895582,139.655778 473.75028,136.518921 473.464685,133.467387 C473.177086,130.418864 472.486647,127.769851 471.396376,125.525367 C470.302096,123.280883 468.608568,121.468031 466.311783,120.08681 C464.011992,118.705589 460.852409,118.014979 456.832033,118.014979 C452.119215,118.014979 448.413495,119.023792 445.714873,121.0364 C443.013244,123.052018 441.002054,125.611693 439.682305,128.71944 C438.359549,131.827187 437.527816,135.280239 437.183098,139.078596 C436.83838,142.876954 436.666021,146.562886 436.666021,150.129367 L436.666021,188.629893 L422.877294,188.629893 L422.877294,107.48317 L436.666021,107.48317 L436.666021,117.324369 Z" id="Fill-15" fill="#BBBCBC" sketch:type="MSShapeGroup" mask="url(#mask-2)"></path>
                <path d="M531.118697,118.014879 C527.095315,118.014879 523.475775,118.821929 520.260075,120.432015 C517.04137,122.045112 514.283624,124.20327 511.986839,126.906488 C509.687048,129.612717 507.90734,132.720464 506.643708,136.229728 C505.377069,139.742004 504.747758,143.394811 504.747758,147.194172 C504.747758,151.223402 505.321954,155.078975 506.471349,158.760892 C507.618739,162.445821 509.315273,165.727224 511.556944,168.602091 C513.79661,171.480972 516.554355,173.781669 519.829177,175.508195 C523.104,177.235725 526.921954,178.097984 531.291056,178.097984 C535.773395,178.097984 539.677528,177.264835 543.011474,175.594521 C546.342413,173.928223 549.157278,171.682735 551.457069,168.86107 C553.754856,166.042416 555.478447,162.791126 556.627841,159.106198 C557.775232,155.424281 558.351432,151.509483 558.351432,147.366825 C558.351432,143.337595 557.719115,139.540241 556.455482,135.970749 C555.189846,132.404268 553.409136,129.296522 551.112351,126.647509 C548.812559,124.001507 545.968635,121.899562 542.580576,120.345689 C539.190514,118.791815 535.368551,118.014879 531.118697,118.014879 L531.118697,118.014879 Z M571.450722,184.658783 C571.450722,187.88297 571.390597,191.017819 571.278363,194.068349 C571.163123,197.116872 570.847466,200.081077 570.330388,202.960962 C569.813311,205.835829 569.008635,208.657494 567.917361,211.419936 C566.824084,214.182377 565.245795,216.885595 563.177486,219.534608 C559.385587,224.368881 554.731891,227.965475 549.216401,230.325396 C543.70091,232.683308 537.89782,233.865778 531.808134,233.865778 C526.176401,233.865778 520.949511,233.001511 516.123457,231.275989 C511.297403,229.548459 507.130722,227.072099 503.627424,223.850923 C500.121119,220.626736 497.336317,216.712943 495.268008,212.110546 C493.199699,207.506142 492.106422,202.326564 491.993186,196.571812 L505.781912,196.571812 C505.895148,204.16953 508.367299,210.152144 513.193353,214.527683 C518.019407,218.90021 524.165211,221.088481 531.635775,221.088481 C536.919783,221.088481 541.25782,220.165995 544.648885,218.32604 C548.036944,216.483074 550.708509,214.009725 552.663582,210.902982 C554.615649,207.794231 555.938405,204.195629 556.627841,200.112194 C557.31828,196.02374 557.661996,191.678315 557.661996,187.075919 L557.661996,177.407373 L557.31828,177.407373 C553.983332,181.667476 549.845712,184.976985 544.907424,187.334898 C539.965127,189.692811 534.738238,190.874276 529.222747,190.874276 C523.362539,190.874276 518.046463,189.722924 513.279532,187.421224 C508.509595,185.120528 504.430096,182.011777 501.042038,178.097984 C497.651975,174.186198 495.065587,169.66812 493.285879,164.544755 C491.503165,159.4244 490.614313,154.042056 490.614313,148.401736 C490.614313,142.763424 491.532225,137.324868 493.372058,132.086066 C495.208885,126.850275 497.823332,122.244867 501.214397,118.273858 C504.602455,114.302848 508.712017,111.138888 513.538071,108.777964 C518.364125,106.420052 523.763374,105.238586 529.739825,105.238586 C535.368551,105.238586 540.539324,106.447154 545.252142,108.864291 C549.962956,111.281427 553.983332,114.678267 557.31828,119.050794 L557.661996,119.050794 L557.661996,107.48307 L571.450722,107.48307 L571.450722,184.658783 Z" id="Fill-16" fill="#BBBCBC" sketch:type="MSShapeGroup" mask="url(#mask-2)"></path>
                <path d="M619.019624,118.014879 C614.99524,118.014879 611.376701,118.821929 608.161002,120.432015 C604.942296,122.045112 602.184551,124.20327 599.886764,126.906488 C597.586973,129.612717 595.807265,132.720464 594.544635,136.229728 C593.277996,139.742004 592.648685,143.394811 592.648685,147.194172 C592.648685,151.223402 593.221879,155.078975 594.371273,158.760892 C595.519666,162.445821 597.215198,165.727224 599.456868,168.602091 C601.697537,171.480972 604.455282,173.781669 607.729102,175.508195 C611.004927,177.235725 614.822881,178.097984 619.191983,178.097984 C623.673319,178.097984 627.578455,177.264835 630.912401,175.594521 C634.24334,173.928223 637.058205,171.682735 639.357996,168.86107 C641.654781,166.042416 643.379374,162.791126 644.528768,159.106198 C645.676159,155.424281 646.252359,151.509483 646.252359,147.366825 C646.252359,143.337595 645.61904,139.540241 644.356409,135.970749 C643.090772,132.404268 641.310063,129.296522 639.013278,126.647509 C636.712484,124.001507 633.868559,121.899562 630.481503,120.345689 C627.090438,118.791815 623.268476,118.014879 619.019624,118.014879 L619.019624,118.014879 Z M659.351649,188.629792 L645.561921,188.629792 L645.561921,177.407373 L645.218205,177.407373 C638.091357,186.385309 628.783967,190.874276 617.295031,190.874276 C611.319582,190.874276 605.946388,189.692811 601.179457,187.334898 C596.410522,184.976985 592.330021,181.839125 588.941962,177.925331 C585.552902,174.014549 582.966514,169.495468 581.186806,164.372102 C579.404092,159.252752 578.51524,153.869403 578.51524,148.229084 C578.51524,142.475336 579.404092,136.979562 581.186806,131.74076 C582.966514,126.50497 585.521837,121.929676 588.855783,118.014879 C592.188727,114.103093 596.268225,110.995346 601.093278,108.691638 C605.920334,106.390942 611.376701,105.238586 617.468392,105.238586 C622.983883,105.238586 628.153653,106.447154 632.98071,108.864291 C637.806764,111.281427 641.883257,114.678267 645.218205,119.050794 L645.561921,119.050794 L645.561921,107.48307 L659.351649,107.48307 L659.351649,188.629792 Z" id="Fill-17" fill="#666666" sketch:type="MSShapeGroup" mask="url(#mask-2)"></path>
                <path d="M676.413595,116.288654 L676.759315,116.288654 C679.172342,113.067478 681.641486,110.418465 684.169754,108.346634 C686.697019,106.274803 690.203324,105.238887 694.683658,105.238887 C696.980443,105.238887 699.135933,105.584192 701.148125,106.274803 C703.157311,106.965413 705.138438,107.8879 707.093511,109.037245 L700.543866,121.640884 C699.164994,120.721409 697.899357,119.887256 696.752969,119.137422 C695.60157,118.389595 694.107457,118.01518 692.27063,118.01518 C688.478731,118.01518 685.519566,119.080205 683.39514,121.209253 C681.267708,123.340308 679.68942,125.957199 678.654263,129.064946 C677.620109,132.172693 676.987791,135.453092 676.759315,138.906144 C676.526831,142.359197 676.413595,145.409727 676.413595,148.056732 L676.413595,188.630094 L662.624868,188.630094 L662.624868,107.483371 L676.413595,107.483371 L676.413595,116.288654 Z" id="Fill-18" fill="#666666" sketch:type="MSShapeGroup" mask="url(#mask-2)"></path>
                <path d="M730.358981,188.629993 L716.570255,188.629993 L716.570255,120.259563 L708.12466,120.259563 L708.12466,107.483271 L716.570255,107.483271 L716.570255,78.3049811 L730.358981,78.3049811 L730.358981,107.483271 L744.837144,107.483271 L744.837144,120.259563 L730.358981,120.259563 L730.358981,188.629993 Z" id="Fill-19" fill="#666666" sketch:type="MSShapeGroup" mask="url(#mask-2)"></path>
            </g>
        </g>
    </g>
</svg>